<?xml version="1.0" encoding="UTF-8" standalone="no"?>
<!-- Created with Inkscape (http://www.inkscape.org/) -->

<svg
   width="200"
   height="200"
   viewBox="0 0 52.916665 52.916666"
   version="1.1"
   id="svg1"
   xml:space="preserve"
   inkscape:version="1.3.2 (091e20e, 2023-11-25, custom)"
   sodipodi:docname="trashBox.svg"
   xmlns:inkscape="http://www.inkscape.org/namespaces/inkscape"
   xmlns:sodipodi="http://sodipodi.sourceforge.net/DTD/sodipodi-0.dtd"
   xmlns="http://www.w3.org/2000/svg"
   xmlns:svg="http://www.w3.org/2000/svg"><sodipodi:namedview
     id="namedview1"
     pagecolor="#ffffff"
     bordercolor="#000000"
     borderopacity="0.25"
     inkscape:showpageshadow="2"
     inkscape:pageopacity="0.0"
     inkscape:pagecheckerboard="0"
     inkscape:deskcolor="#ffffff"
     inkscape:document-units="px"
     inkscape:zoom="2.8284272"
     inkscape:cx="97.934287"
     inkscape:cy="35.001785"
     inkscape:window-width="2560"
     inkscape:window-height="1476"
     inkscape:window-x="-12"
     inkscape:window-y="-12"
     inkscape:window-maximized="1"
     inkscape:current-layer="layer1" /><defs
     id="defs1"><inkscape:path-effect
       effect="spiro"
       id="path-effect5"
       is_visible="true"
       lpeversion="1" /><inkscape:path-effect
       effect="fillet_chamfer"
       id="path-effect26"
       is_visible="true"
       lpeversion="1"
       nodesatellites_param="F,0,0,1,0,0,0,1 @ F,0,0,1,0,0,0,1 @ F,0,0,1,0,4.6959256,0,1 @ F,0,0,1,0,4.5275457,0,1"
       radius="0"
       unit="px"
       method="auto"
       mode="F"
       chamfer_steps="1"
       flexible="false"
       use_knot_distance="true"
       apply_no_radius="true"
       apply_with_radius="true"
       only_selected="false"
       hide_knots="false" /><linearGradient
       id="swatch24"
       inkscape:swatch="solid"><stop
         style="stop-color:#e5c476;stop-opacity:1;"
         offset="0"
         id="stop24" /></linearGradient><linearGradient
       id="swatch22"
       inkscape:swatch="solid"><stop
         style="stop-color:#e5c476;stop-opacity:1;"
         offset="0"
         id="stop22" /></linearGradient></defs><g
     inkscape:groupmode="layer"
     id="layer2"
     inkscape:label="Layer 2" /><g
     inkscape:label="Layer 1"
     inkscape:groupmode="layer"
     id="layer1"><rect
       style="opacity:0.92340426;fill:#00aad4;stroke:#53606c;stroke-width:0.99986;stroke-opacity:1;stroke-linejoin:round;stroke-linecap:round;fill-opacity:1"
       id="rect2"
       width="25.818235"
       height="3.1805072"
       x="13.283296"
       y="15.341271" /><rect
       style="opacity:0.92340426;fill:#00aad4;fill-opacity:1;stroke:#53606c;stroke-width:0.99986;stroke-linecap:round;stroke-linejoin:round;stroke-opacity:1"
       id="rect3"
       width="7.4835467"
       height="2.4321527"
       x="22.450642"
       y="11.786587" /><path
       style="opacity:0.92340426;fill:#00aad4;fill-opacity:1;stroke:#53606c;stroke-width:0.99986;stroke-linecap:round;stroke-linejoin:round;stroke-opacity:1"
       id="rect4"
       width="22.63773"
       height="24.695704"
       x="14.967093"
       y="20.018486"
       inkscape:path-effect="#path-effect26"
       sodipodi:type="rect"
       d="m 14.967093,20.018486 h 22.63773 V 40.018264 A 4.6959256,4.6959256 135 0 1 32.908898,44.71419 H 19.494639 a 4.5275457,4.5275457 45 0 1 -4.527546,-4.527546 z" /><ellipse
       style="opacity:1;fill:#ffffff;stroke:#ffffff;stroke-width:0.264583;stroke-dasharray:none;stroke-opacity:1"
       id="path1"
       ry="8.5328121"
       rx="8.1359377"
       cy="32.279167"
       cx="26.061457" /><path
       style="opacity:1;fill:#aaeeff;stroke:#929292;stroke-width:0.0883883;stroke-dasharray:none;stroke-opacity:0"
       d="m 95.724578,154.58375 c -11.74494,-1.12184 -21.900202,-9.09117 -26.261336,-20.60855 -0.749779,-1.9801 -1.333956,-4.16559 -1.713869,-6.41184 -0.216629,-1.28082 -0.393191,-3.14897 -0.30289,-3.20477 0.04408,-0.0273 0.120859,-0.26624 0.170622,-0.53109 0.21684,-1.1541 0.82156,-2.53846 1.526663,-3.49493 1.133981,-1.53823 2.667346,-2.58098 4.6326,-3.15034 0.589903,-0.17091 0.897393,-0.20009 2.105027,-0.19978 1.537729,3.9e-4 1.948584,0.0746 3.208857,0.57919 1.976684,0.7915 3.609722,2.16051 6.794409,5.69591 0.875822,0.97227 1.971379,2.12941 2.434569,2.57143 1.666277,1.5901 3.467364,2.87777 5.239834,3.74617 2.19191,1.0739 4.012919,1.52121 6.231378,1.53069 1.485188,0.006 2.368738,-0.12109 3.656978,-0.52746 2.06502,-0.6514 3.94858,-2.0437 5.1063,-3.77452 0.62293,-0.93128 0.83175,-1.33395 1.76711,-3.40746 0.38453,-0.85244 0.86354,-1.82903 1.06445,-2.1702 2.46136,-4.17957 6.14837,-4.23588 8.90694,-0.13604 0.1806,0.26841 0.56003,0.90564 0.84319,1.41609 1.21197,2.18479 1.42385,2.55074 1.8183,3.14049 0.95683,1.43057 1.92456,2.33063 3.13226,2.91322 0.89528,0.43188 1.47002,0.57541 2.30414,0.57541 h 0.57185 l -0.0529,0.24307 c -0.0291,0.13369 -0.20865,0.82666 -0.39906,1.53994 -1.23976,4.6443 -3.47224,8.93344 -6.58922,12.6595 -1.10264,1.31811 -3.19926,3.37652 -4.49689,4.41493 -4.70495,3.76508 -10.37086,6.05612 -16.30765,6.59408 -1.16151,0.10525 -4.275912,0.10344 -5.391692,-0.003 z"
       id="path6"
       transform="scale(0.26458333)" /></g></svg>
